<svg width="90" height="90" viewBox="0 0 90 90" fill="none" xmlns="http://www.w3.org/2000/svg">
	<path
		d="M57 33C50.4 33 43 38.4 43 45C43 51.6 50.4 57 57 57C63.6 57 57 51.6 57 45C57 38.4 63.6 33 57 33ZM45 53C41.5 48 24 49.4 24 45C24 40.6 41 43 45 37C49.4 37 53 40.6 53 45C53 49.4 49.4 53 45 53ZM88 43H81.9C80.9 24.2 65.8 9.1 47 8.1V2C47 0.9 46.1 0 45 0C43.9 0 43 0.9 43 2V8.1C24.2 9.1 9.1 24.2 8.1 43H2C0.9 43 0 43.9 0 45C0 46.1 0.9 47 2 47H8.1C9.1 65.8 24.2 80.9 43 81.9V88C43 89.1 43.9 90 45 90C46.1 90 47 89.1 47 88V81.9C65.8 80.9 80.9 65.8 81.9 47H88C89.1 47 90 46.1 90 45C90 43.9 89.1 43 88 43ZM45 78C26.8 78 12 63.2 12 45C12 26.8 26.8 12 45 12C63.2 12 78 26.8 78 45C78 63.2 63.2 78 45 78Z"
		fill="white" />
</svg>
