<svg clip-rule="evenodd" fill-rule="evenodd" stroke-linejoin="round" stroke-miterlimit="2" viewBox="0 0 28 28" xmlns="http://www.w3.org/2000/svg"><path d="m3.593 3.475h21.773v21.371h-21.773z" fill="#ebebeb"/><path d="m28 3c0-1.656-1.344-3-3-3h-22c-1.656 0-3 1.344-3 3v22c0 1.656 1.344 3 3 3h22c1.656 0 3-1.344 3-3zm-23.333 18h17.5v-2h-17.5zm9.911-5.606c.047 0 .093-.005.14-.017l2.311-.578c.101-.025.194-.078.268-.152l7.103-7.102c.218-.219.339-.509.339-.817 0-.309-.121-.599-.339-.817l-.916-.917c-.437-.436-1.197-.436-1.634 0l-7.103 7.103c-.074.074-.126.167-.152.268l-.578 2.311c-.021.085-.023.174-.004.26.018.086.055.167.109.236s.123.125.202.164c.079.038.166.058.254.058zm1.099-2.593 5.256-5.256.917.916-5.257 5.256-1.221.305zm6.99-6.99.916.917-.916.916-.917-.916z" fill="#ff9066"/></svg>