<svg clip-rule="evenodd" fill-rule="evenodd" stroke-linejoin="round" stroke-miterlimit="2" viewBox="0 0 28 28" xmlns="http://www.w3.org/2000/svg"><path d="m3.593 3.475h21.773v21.371h-21.773z" fill="#ebebeb"/><path d="m28 3c0-1.656-1.344-3-3-3h-22c-1.656 0-3 1.344-3 3v22c0 1.656 1.344 3 3 3h22c1.656 0 3-1.344 3-3zm-19.167 7.667h-1.416v8.5c0 .781.635 1.416 1.416 1.416h8.5v-1.416h-8.5zm11.334-4.25h-8.5c-.782 0-1.417.635-1.417 1.416v8.5c0 .782.635 1.417 1.417 1.417h8.5c.781 0 1.416-.635 1.416-1.417v-8.5c0-.781-.635-1.416-1.416-1.416zm-8.5 9.916v-8.5h8.5l.001 8.5zm2.833-2.833-.708-.708-1.417 2.125h7.083l-2.833-4.25z" fill="#d67af1"/></svg>