<svg clip-rule="evenodd" fill-rule="evenodd" stroke-linejoin="round" stroke-miterlimit="2" viewBox="0 0 28 28" xmlns="http://www.w3.org/2000/svg"><path d="m3.593 3.475h21.773v21.371h-21.773z" fill="#ebebeb"/><path d="m28 3c0-1.656-1.344-3-3-3h-22c-1.656 0-3 1.344-3 3v22c0 1.656 1.344 3 3 3h22c1.656 0 3-1.344 3-3zm-11.169 12.367c-.2.206-.347.461-.428.741l-.401 1.392h-.652c-.113 0-.214-.065-.267-.178-.316-.652-1.219-.829-1.738-.387l-.366-1.138c-.086-.269-.327-.449-.6-.449-.272 0-.513.18-.599.449l-.48 1.494c-.039.125-.152.209-.279.209h-.326c-.233 0-.422.196-.422.438 0 .241.189.437.422.437h.326c.491 0 .924-.325 1.079-.807l.28-.872.442 1.38c.027.082.076.154.142.207s.145.085.229.091c.01.001.019.001.029.001.159 0 .305-.093.377-.242l.202-.419c.073-.153.209-.17.264-.17s.191.016.268.179c.194.402.584.652 1.017.652h1.664v1.313h-7.584v-11.373h4.213v2.843c0 .364.281.656.632.656h2.739v2.133l1.264-1.301v-2.037c0-.347-.136-.684-.373-.93l-2.209-2.293c-.237-.247-.558-.386-.893-.386h-5.373c-.697.003-1.263.591-1.263 1.315v11.373c0 .724.566 1.312 1.263 1.312h7.582c.698 0 1.266-.588 1.266-1.312v-2.057l3.546-3.707-1.788-1.856zm6.306-3.792-.839-.871c-.262-.272-.687-.272-.948 0l-.718.745 1.788 1.856.717-.745c.262-.272.262-.713 0-.985zm-8.231-3.153 2.004 2.08h-2.004z" fill="#af6ded"/></svg>