<?xml version="1.0" encoding="UTF-8" standalone="no"?>
<!DOCTYPE svg PUBLIC "-//W3C//DTD SVG 1.1//EN" "http://www.w3.org/Graphics/SVG/1.1/DTD/svg11.dtd">
<svg width="100%" height="100%" viewBox="0 0 12 12" version="1.1" xmlns="http://www.w3.org/2000/svg" xmlns:xlink="http://www.w3.org/1999/xlink" xml:space="preserve" xmlns:serif="http://www.serif.com/" style="fill-rule:evenodd;clip-rule:evenodd;stroke-linejoin:round;stroke-miterlimit:2;">
    <path d="M7.182,9.455L9.545,9.455L9.545,11.818L7.182,11.818L7.182,9.455ZM2.455,9.455L4.818,9.455L4.818,11.818L2.455,11.818L2.455,9.455ZM7.182,4.727L9.545,4.727L9.545,7.091L7.182,7.091L7.182,4.727ZM2.455,4.727L4.818,4.727L4.818,7.091L2.455,7.091L2.455,4.727ZM2.455,0L4.818,0L4.818,2.364L2.455,2.364L2.455,0ZM7.182,0L9.545,0L9.545,2.364L7.182,2.364L7.182,0Z" style="fill-rule:nonzero;"/>
</svg>
