<svg clip-rule="evenodd" fill-rule="evenodd" stroke-linejoin="round" stroke-miterlimit="2" viewBox="0 0 28 28" xmlns="http://www.w3.org/2000/svg"><path d="m3.593 3.475h21.773v21.371h-21.773z" fill="#ebebeb"/><path d="m28 3c0-1.656-1.344-3-3-3h-22c-1.656 0-3 1.344-3 3v22c0 1.656 1.344 3 3 3h22c1.656 0 3-1.344 3-3zm-13.605 6.944-7.097 7.097-3.065-3.065-1.316 1.316 4.381 4.382 8.413-8.413 2.712 2.712-4.028 4.028 1.343 1.343 4.028-4.028 4.03 4.028 1.342-1.343-4.028-4.028 4.028-4.029-1.342-1.342-4.03 4.028-4.028-4.028z" fill="#4dabf7"/></svg>